<svg id="Layer_1" data-name="Layer 1" xmlns="http://www.w3.org/2000/svg" viewBox="0 0 720 720"><defs><style>.cls-1{fill:#3bae8a;}.cls-2{fill:#86ca94;}</style></defs><title>flutterbird</title><path class="cls-1" d="M24.79,622.39l344.9-339.64a1.2,1.2,0,0,1,1.74.06L484.69,410a1.2,1.2,0,0,1-.39,1.89L26.14,624.33A1.2,1.2,0,0,1,24.79,622.39Z"/><path class="cls-1" d="M189.05,77.95l283.09,318a15.14,15.14,0,0,1-5,23.83L332.6,481.39,187,79.18A1.22,1.22,0,0,1,189.05,77.95Z"/><polyline class="cls-2" points="410.1 287.92 549.81 288.52 509 384.71"/><path class="cls-1" d="M461.88,165.61,693,286.64c2.9,1.7-.65,1.55-.55,2.24l-282.35-.72"/></svg>