<svg xmlns="http://www.w3.org/2000/svg" width="577.113" height="577.113" viewBox="0 0 577.113 577.113">
  <defs>
    <style>
      .cls-1 {
        fill: #fff;
      }
    </style>
  </defs>
  <path id="Icon_awesome-vimeo-square" data-name="Icon awesome-vimeo-square" class="cls-1" d="M515.28,2.25H61.834A61.85,61.85,0,0,0,0,64.084V517.529a61.85,61.85,0,0,0,61.834,61.834H515.28a61.849,61.849,0,0,0,61.834-61.834V64.084A61.849,61.849,0,0,0,515.28,2.25ZM494.411,194.964q-2.705,60.094-84.119,164.761Q326.237,468.9,268.074,468.964c-24.089,0-44.314-22.157-60.932-66.471C174.68,283.592,160.9,213.9,134.1,213.9c-3.092,0-13.913,6.441-32.334,19.452L82.445,208.362c47.535-41.738,92.879-88.113,121.22-90.689q48.114-4.638,59.257,65.827c26.408,166.951,38.131,192.2,86.052,116.582,17.262-27.31,26.537-47.921,27.7-62.22,4.38-42.253-32.978-39.419-58.227-28.6Q348.78,109.75,434.51,112.52c42.382,1.288,62.349,28.856,59.9,82.445Z" transform="translate(0 -2.25)"/>
</svg>
