<svg xmlns="http://www.w3.org/2000/svg" width="476.378" height="476.367" viewBox="0 0 476.378 476.367">
  <defs>
    <style>
      .cls-1 {
        fill: #fff;
      }
    </style>
  </defs>
  <path id="Icon_awesome-linkedin-in" data-name="Icon awesome-linkedin-in" class="cls-1" d="M106.632,476.368H7.869V158.322h98.763ZM57.2,114.937C25.616,114.937,0,88.779,0,57.2a57.2,57.2,0,0,1,114.394,0C114.394,88.779,88.768,114.937,57.2,114.937Zm419.074,361.43H377.721V321.545c0-36.9-.744-84.217-51.349-84.217-51.349,0-59.218,40.088-59.218,81.558V476.368H168.5V158.322H263.22v43.384H264.6c13.185-24.989,45.394-51.359,93.447-51.359,99.954,0,118.329,65.821,118.329,151.314V476.368Z" transform="translate(0 -0.001)"/>
</svg>
