<svg xmlns="http://www.w3.org/2000/svg" width="578.443" height="578.442" viewBox="0 0 578.443 578.442">
  <defs>
    <style>
      .cls-1 {
        fill: #fff;
      }
    </style>
  </defs>
  <path id="Icon_zocial-dribbble" data-name="Icon zocial-dribbble" class="cls-1" d="M0,289.221q0-78.668,38.756-145.189A287.166,287.166,0,0,1,144.032,38.756Q210.553,0,289.221,0T434.41,38.756A287.166,287.166,0,0,1,539.687,144.032q38.756,66.521,38.756,145.189T539.687,434.41A287.165,287.165,0,0,1,434.41,539.686q-66.521,38.756-145.189,38.756T144.032,539.686A287.166,287.166,0,0,1,38.756,434.41Q0,367.889,0,289.221Zm48.011,0q0,90.237,60.736,159.072,27.765-54.374,87.923-103.541t117.424-61.893q-8.677-20.245-16.775-36.442-99.492,31.814-215.181,31.814-22.559,0-33.55-.578,0,2.314-.289,5.784t-.289,5.784Zm7.52-59.58q12.726,1.157,37.6,1.157,96.6,0,183.366-26.03-43.962-78.09-96.6-130.149a234.813,234.813,0,0,0-78.379,64.207A246.95,246.95,0,0,0,55.531,229.641Zm86.188,249.887q65.364,50.9,147.5,50.9,42.8,0,85.031-16.2a849.4,849.4,0,0,0-45.119-191.464q-53.217,11.569-107.3,58.423t-80.114,98.335Zm88.5-423.42q50.9,52.638,94.286,131.306,78.668-32.971,118.581-83.874-67.1-55.53-153.866-55.53a222.019,222.019,0,0,0-59,8.1ZM345.33,228.485q8.677,18.51,19.667,46.854,42.8-4.049,93.129-4.049,35.863,0,71.148,1.735-4.627-78.668-56.687-139.983-37.6,56.109-127.257,95.443Zm34.128,87.345a830.25,830.25,0,0,1,39.913,175.846A241.347,241.347,0,0,0,493.99,415.9,233.646,233.646,0,0,0,528.7,315.829q-42.226-2.892-76.933-2.892Q419.949,312.937,379.458,315.829Z"/>
</svg>
